<svg data-v-423bf9ae="" xmlns="http://www.w3.org/2000/svg" viewBox="0 0 550 90" class="iconLeft"><!----><!----><!----><g data-v-423bf9ae="" id="cccb8d20-1767-4d42-9f70-63998fe8471b" fill="#0b345a" transform="matrix(5.5658623541953265,0,0,5.5658623541953265,152.82261136320477,-6.76252109053263)"><path d="M4.65 4.54C3.79 4.54 3.04 4.66 2.20 4.68C1.81 4.66 0.77 4.61 0.77 4.61L0.70 5.36L1.69 5.53C1.72 5.71 1.82 6.36 1.82 6.59L1.82 12.63C1.82 12.87 1.72 13.51 1.69 13.69L0.67 13.92L0.74 14.62C0.74 14.62 1.79 14.56 2.20 14.55C3.28 14.56 4.21 14.62 4.89 14.62C6.48 14.62 7.74 13.59 7.74 11.98C7.74 10.53 6.75 9.67 5.36 9.46L5.36 9.37C6.50 9.09 7.31 8.18 7.31 6.94C7.31 5.40 6.09 4.54 4.65 4.54ZM3.19 5.38C3.54 5.33 3.95 5.29 4.35 5.29C5.33 5.29 6.01 5.99 6.01 7.11C6.01 8.36 5.14 9.03 4.02 9.03L3.92 9.03L3.82 9.83L3.98 9.83C5.22 9.83 6.33 10.46 6.33 11.87C6.33 13.13 5.56 13.80 4.45 13.80C3.99 13.80 3.53 13.76 3.18 13.72C3.15 13.55 3.09 12.82 3.09 12.21L3.09 7.01C3.09 6.40 3.16 5.56 3.19 5.38ZM8.65 4.65L9.72 4.87C9.72 4.87 9.86 5.66 9.86 5.94L9.86 12.63C9.86 12.91 9.74 13.57 9.72 13.69L8.64 13.92L8.71 14.62C8.71 14.62 9.98 14.55 10.26 14.55C11.38 14.55 12.07 14.62 12.07 14.62L12.17 13.79L11.07 13.69C11.06 13.58 10.99 12.82 10.99 12.21L10.99 6.36C10.99 5.70 11.05 4.65 11.09 4.21L10.82 3.96L10.01 3.96C9.73 3.96 8.72 3.91 8.72 3.91ZM17.01 8.32L18.00 8.54C18.00 8.54 18.14 9.32 18.14 9.60L18.14 11.61C18.14 12.73 17.53 13.79 16.38 13.79C15.34 13.79 14.99 13.02 14.99 11.98L14.99 10.02C14.99 9.32 15.09 7.88 15.09 7.88L14.83 7.63L14.01 7.63C13.73 7.63 12.87 7.57 12.87 7.57L12.80 8.32L13.72 8.54C13.72 8.54 13.86 9.32 13.86 9.60L13.86 11.51C13.86 13.40 14.20 14.69 16.13 14.69C17.43 14.69 18.03 13.92 18.30 13.45L18.48 14.55C19.60 14.55 20.29 14.62 20.29 14.62L20.38 13.79L19.42 13.69C19.42 13.69 19.28 12.91 19.28 12.21L19.28 10.02C19.28 9.32 19.38 7.88 19.38 7.88L19.11 7.63L18.30 7.63C18.02 7.63 17.08 7.57 17.08 7.57ZM24.37 7.50C22.32 7.50 21.32 9.02 21.32 11.12C21.32 13.23 22.43 14.69 24.54 14.69C26.12 14.69 27.02 13.85 27.02 13.85L26.63 13.20C26.63 13.20 25.73 13.78 24.54 13.78C23.28 13.78 22.68 12.49 22.64 11.23L26.82 11.23L27.06 10.77C27.06 8.81 26.33 7.50 24.37 7.50ZM24.32 8.23C25.31 8.23 25.77 9.02 25.77 10.01C25.77 10.08 25.76 10.29 25.76 10.29L22.65 10.53C22.75 9.37 23.17 8.23 24.32 8.23ZM40.03 4.68L39.75 4.96C39.75 4.96 39.14 6.72 39.00 7.03L37.10 12.10L35.24 7.14C35.11 6.80 34.51 4.96 34.51 4.96L34.24 4.66L33.46 4.66C33.18 4.68 31.53 4.61 31.53 4.61L31.46 5.36L32.61 5.53C32.63 5.73 32.66 6.34 32.66 6.58L32.30 12.70C32.26 12.94 32.10 13.51 32.06 13.69L30.97 13.92L31.04 14.62C31.04 14.62 32.27 14.55 32.54 14.55C33.63 14.55 34.34 14.62 34.34 14.62L34.44 13.79L33.31 13.69C33.29 13.47 33.24 12.67 33.24 12.28L33.57 6.37L36.64 14.55L37.14 14.55L40.21 6.37L40.59 12.28C40.59 12.67 40.53 13.48 40.52 13.69L39.42 13.92L39.49 14.62C39.49 14.62 40.89 14.55 41.16 14.55C42.28 14.55 43.20 14.62 43.20 14.62L43.29 13.79L42.15 13.69C42.11 13.51 41.97 12.94 41.93 12.70L41.45 6.58C41.45 6.34 41.47 5.70 41.50 5.53L42.62 5.43L42.56 4.61C42.56 4.61 41.51 4.68 40.39 4.68ZM50.30 11.10C50.30 8.93 49.24 7.50 47.08 7.50C44.95 7.50 43.86 8.96 43.86 11.10C43.86 13.23 44.95 14.69 47.08 14.69C49.21 14.69 50.30 13.23 50.30 11.10ZM48.99 11.10C48.99 12.54 48.52 13.89 47.08 13.89C45.64 13.89 45.18 12.54 45.18 11.10C45.18 9.66 45.64 8.30 47.08 8.30C48.52 8.30 48.99 9.66 48.99 11.10ZM58.37 13.79L57.40 13.69C57.40 13.69 57.26 12.91 57.26 12.21L57.26 6.36C57.26 5.66 57.36 4.21 57.36 4.21L57.09 3.96L56.28 3.96C56 3.96 54.82 3.91 54.82 3.91L54.75 4.65L55.99 4.87C55.99 4.87 56.13 5.66 56.13 5.94L56.13 7.84C55.38 7.57 54.96 7.50 54.38 7.50C52.56 7.50 51.44 8.88 51.44 11.09C51.44 13.33 52.50 14.69 54.25 14.69C54.99 14.69 55.99 14.07 56.27 13.43L56.46 14.55C57.58 14.55 58.27 14.62 58.27 14.62ZM56.13 11.65C56.13 12.99 55.47 13.79 54.35 13.79C53.34 13.79 52.72 12.77 52.72 11.10C52.72 9.37 53.38 8.36 54.52 8.36C55.10 8.36 55.59 8.51 56.13 8.86ZM63.83 14.55C64.95 14.55 65.63 14.62 65.63 14.62L65.73 13.79L64.76 13.69C64.76 13.69 64.62 12.91 64.62 12.21L64.62 10.47C64.62 8.33 63.98 7.50 62.31 7.50C61.47 7.50 60.62 7.62 59.78 7.84L59.93 9.74L60.75 9.70L60.75 9.13L60.84 8.54C61.19 8.37 61.71 8.26 62.17 8.26C63.06 8.26 63.49 8.89 63.49 10.19L63.49 10.65L61.25 11.03C59.99 11.24 59.37 11.89 59.37 12.89C59.37 13.99 60.16 14.69 61.40 14.69C62.31 14.69 63.27 14.15 63.63 13.44ZM63.49 11.37L63.49 12.21C63.35 13.12 62.57 13.79 61.63 13.79C60.97 13.79 60.61 13.38 60.61 12.68C60.61 12.19 60.93 11.84 61.49 11.75ZM68.91 7.50C67.61 7.50 66.64 8.19 66.64 9.37C66.64 11.63 70.18 11.44 70.18 12.91C70.18 13.65 69.69 13.97 68.91 13.97C68.46 13.97 68.05 13.89 67.73 13.64C67.62 13.31 67.52 12.95 67.52 12.81L67.52 12.28L66.71 12.24L66.56 14.14C66.56 14.14 67.48 14.69 68.87 14.69C70.39 14.69 71.33 14.11 71.33 12.64C71.33 10.43 67.76 10.57 67.76 9.14C67.76 8.57 68.21 8.23 68.89 8.23C69.29 8.23 69.54 8.27 69.83 8.40C69.93 8.72 70.03 9.06 70.03 9.20L70.03 9.70L70.84 9.74L71.01 7.74C70.34 7.60 69.58 7.50 68.91 7.50Z"></path></g><!----><g data-v-423bf9ae="" id="70b732b9-3fe6-4406-88d4-b01c93c4764c" transform="matrix(1.5517241379310345,0,0,1.5517241379310345,-8.58620689655173,-32.58620689655173)" stroke="none" fill="#0b345a"><path style="text-indent:0;text-align:start;line-height:normal;text-transform:none;block-progression:tb;marker:none;-inkscape-font-specification:Sans" d="M50 21c-6.051 0-11 4.949-11 11a2 2 0 1 0 4 0c0-3.89 3.11-7 7-7s7 3.11 7 7c0 1.456-.365 2.36-1.031 3.313-.666.952-1.691 1.9-2.844 3-2.031 1.936-4.451 4.612-5 8.874-2.145.405-3.875 1.456-5.219 2.688-1.715 1.572-2.97 3.345-4.312 4.688a2 2 0 0 0-.094.093c-2.767 3.104-10.589 5.514-17.844 8.282-3.627 1.383-7.126 2.927-9.875 5.093C8.033 70.197 6 73.237 6 77a2 2 0 0 0 2 2h84a2 2 0 0 0 2-2c0-3.763-2.033-6.803-4.781-8.969-2.749-2.166-6.248-3.71-9.875-5.094-7.255-2.767-15.077-5.177-17.844-8.28a2 2 0 0 0-.094-.094c-1.343-1.343-2.597-3.116-4.312-4.688-1.293-1.185-2.936-2.188-4.969-2.625.425-2.832 1.905-4.304 3.75-6.063 1.097-1.046 2.322-2.131 3.344-3.593C60.24 36.132 61 34.263 61 32c0-6.051-4.949-11-11-11zm0 30c1.967 0 3.121.666 4.406 1.844 1.258 1.152 2.49 2.844 4.094 4.468.028.032.065.062.094.094 4.307 4.737 12.408 6.635 19.343 9.282 3.492 1.331 6.663 2.805 8.813 4.5C88.226 72.35 89.031 73.6 89.5 75h-79c.469-1.4 1.274-2.649 2.75-3.813 2.15-1.694 5.321-3.168 8.813-4.5 6.935-2.646 15.036-4.544 19.343-9.28.02-.022.044-.042.063-.063l.031-.032c1.605-1.624 2.836-3.316 4.094-4.468C46.879 51.666 48.034 51 50 51z" font-weight="400" color="#000" overflow="visible" font-family="Sans"></path></g><!----></svg>